<?xml version="1.0" encoding="UTF-8" standalone="no"?>
<!DOCTYPE svg PUBLIC "-//W3C//DTD SVG 1.1//EN"
 "http://www.w3.org/Graphics/SVG/1.1/DTD/svg11.dtd">
<!-- Generated by graphviz version 2.50.0 (0)
 -->
<!-- Pages: 1 -->
<svg width="352pt" height="224pt"
 viewBox="0.00 0.00 351.50 223.87" xmlns="http://www.w3.org/2000/svg" xmlns:xlink="http://www.w3.org/1999/xlink">
<g id="graph0" class="graph" transform="scale(1 1) rotate(0) translate(4 219.87)">
<polygon fill="white" stroke="transparent" points="-4,4 -4,-219.87 347.5,-219.87 347.5,4 -4,4"/>
<!-- MODE -->
<g id="node1" class="node">
<title>MODE</title>
<polygon fill="lightblue" stroke="black" points="155.5,-149.65 111.5,-149.65 111.5,-131.65 155.5,-131.65 155.5,-149.65"/>
<text text-anchor="middle" x="133.5" y="-138.45" font-family="Times New Roman,serif" font-size="9.00">MODE</text>
</g>
<!-- MODE&#45;&gt;MODE -->
<g id="edge4" class="edge">
<title>MODE&#45;&gt;MODE</title>
<path fill="none" stroke="red" stroke-width="0.17" d="M144.97,-149.74C158.19,-156.18 173.5,-153.16 173.5,-140.65 173.5,-131.18 164.71,-127.14 154.69,-128.55"/>
<polygon fill="red" stroke="red" stroke-width="0.17" points="153.48,-125.26 144.97,-131.57 155.55,-131.95 153.48,-125.26"/>
</g>
<!-- ANG_VEL -->
<g id="node6" class="node">
<title>ANG_VEL</title>
<ellipse fill="lightblue" stroke="black" cx="82.5" cy="-41.72" rx="41.94" ry="41.94"/>
<text text-anchor="middle" x="82.5" y="-39.52" font-family="Times New Roman,serif" font-size="9.00">ANG_VEL</text>
</g>
<!-- MODE&#45;&gt;ANG_VEL -->
<g id="edge12" class="edge">
<title>MODE&#45;&gt;ANG_VEL</title>
<path fill="none" stroke="red" stroke-width="0.32" d="M129.15,-131.39C124.03,-121.65 115.12,-104.71 106.44,-88.23"/>
<polygon fill="red" stroke="red" stroke-width="0.32" points="109.43,-86.39 101.68,-79.17 103.24,-89.65 109.43,-86.39"/>
</g>
<!-- 2 -->
<g id="node7" class="node">
<title>2</title>
<ellipse fill="lightblue" stroke="black" cx="172.5" cy="-41.72" rx="14.7" ry="14.7"/>
<text text-anchor="middle" x="172.5" y="-39.52" font-family="Times New Roman,serif" font-size="9.00">2</text>
</g>
<!-- MODE&#45;&gt;2 -->
<g id="edge5" class="edge">
<title>MODE&#45;&gt;2</title>
<path fill="none" stroke="red" stroke-width="0.61" d="M136.83,-131.39C142.65,-116.91 154.89,-86.49 163.4,-65.34"/>
<polygon fill="red" stroke="red" stroke-width="0.61" points="166.74,-66.4 167.23,-55.82 160.25,-63.79 166.74,-66.4"/>
</g>
<!-- TETA_TX -->
<g id="node2" class="node">
<title>TETA_TX</title>
<polygon fill="lightgray" stroke="black" points="55,-149.65 0,-149.65 0,-131.65 55,-131.65 55,-149.65"/>
<text text-anchor="middle" x="27.5" y="-138.45" font-family="Times New Roman,serif" font-size="9.00">TETA_TX</text>
</g>
<!-- TETA_TX&#45;&gt;ANG_VEL -->
<g id="edge7" class="edge">
<title>TETA_TX&#45;&gt;ANG_VEL</title>
<path fill="none" stroke="green" stroke-width="0.21" d="M32.19,-131.39C37.85,-121.41 47.81,-103.85 57.39,-86.98"/>
<polygon fill="green" stroke="green" stroke-width="0.21" points="60.44,-88.69 62.33,-78.26 54.35,-85.23 60.44,-88.69"/>
</g>
<!-- TETA_RX -->
<g id="node3" class="node">
<title>TETA_RX</title>
<polygon fill="lightgray" stroke="black" points="240.5,-215.87 184.5,-215.87 184.5,-197.87 240.5,-197.87 240.5,-215.87"/>
<text text-anchor="middle" x="212.5" y="-204.67" font-family="Times New Roman,serif" font-size="9.00">TETA_RX</text>
</g>
<!-- TETA_RX&#45;&gt;MODE -->
<g id="edge10" class="edge">
<title>TETA_RX&#45;&gt;MODE</title>
<path fill="none" stroke="green" stroke-width="0.61" d="M202.49,-197.73C189.67,-187.31 167.22,-169.06 151.42,-156.21"/>
<polygon fill="green" stroke="green" stroke-width="0.61" points="153.39,-153.31 143.42,-149.72 148.98,-158.74 153.39,-153.31"/>
</g>
<!-- 346 -->
<g id="node9" class="node">
<title>346</title>
<ellipse fill="white" stroke="black" cx="272.5" cy="-140.65" rx="21.43" ry="21.43"/>
<text text-anchor="middle" x="272.5" y="-138.45" font-family="Times New Roman,serif" font-size="9.00">346</text>
</g>
<!-- TETA_RX&#45;&gt;346 -->
<g id="edge14" class="edge">
<title>TETA_RX&#45;&gt;346</title>
<path fill="none" stroke="green" stroke-width="0.45" d="M220.1,-197.73C227.96,-189.32 240.6,-175.79 251.49,-164.14"/>
<polygon fill="green" stroke="green" stroke-width="0.45" points="254.06,-166.51 258.33,-156.82 248.94,-161.74 254.06,-166.51"/>
</g>
<!-- 159 -->
<g id="node10" class="node">
<title>159</title>
<ellipse fill="white" stroke="black" cx="212.5" cy="-140.65" rx="21.43" ry="21.43"/>
<text text-anchor="middle" x="212.5" y="-138.45" font-family="Times New Roman,serif" font-size="9.00">159</text>
</g>
<!-- TETA_RX&#45;&gt;159 -->
<g id="edge3" class="edge">
<title>TETA_RX&#45;&gt;159</title>
<path fill="none" stroke="red" stroke-width="0.63" d="M212.5,-197.73C212.5,-191.19 212.5,-181.56 212.5,-172.12"/>
<polygon fill="red" stroke="red" stroke-width="0.63" points="216,-172.11 212.5,-162.11 209,-172.11 216,-172.11"/>
</g>
<!-- RCV_1 -->
<g id="node4" class="node">
<title>RCV_1</title>
<polygon fill="lightgray" stroke="black" points="343.5,-215.87 299.5,-215.87 299.5,-197.87 343.5,-197.87 343.5,-215.87"/>
<text text-anchor="middle" x="321.5" y="-204.67" font-family="Times New Roman,serif" font-size="9.00">RCV_1</text>
</g>
<!-- RCV_1&#45;&gt;2 -->
<g id="edge9" class="edge">
<title>RCV_1&#45;&gt;2</title>
<path fill="none" stroke="green" stroke-width="0.36" d="M321.77,-197.61C321.9,-181.15 320.08,-143.7 302.5,-119.44 275.95,-82.8 226.09,-60.69 196.43,-50.17"/>
<polygon fill="green" stroke="green" stroke-width="0.36" points="197.45,-46.82 186.85,-46.93 195.2,-53.45 197.45,-46.82"/>
</g>
<!-- 3 -->
<g id="node8" class="node">
<title>3</title>
<ellipse fill="lightblue" stroke="black" cx="315.5" cy="-41.72" rx="14.7" ry="14.7"/>
<text text-anchor="middle" x="315.5" y="-39.52" font-family="Times New Roman,serif" font-size="9.00">3</text>
</g>
<!-- RCV_1&#45;&gt;3 -->
<g id="edge8" class="edge">
<title>RCV_1&#45;&gt;3</title>
<path fill="none" stroke="red" stroke-width="0.23" stroke-dasharray="1,5" d="M324.97,-197.61C328.43,-188.91 333.51,-174.7 335.5,-161.87 340.71,-128.28 331.32,-89.48 323.71,-65.52"/>
<polygon fill="red" stroke="red" stroke-width="0.23" points="327,-64.3 320.51,-55.93 320.36,-66.52 327,-64.3"/>
</g>
<!-- RCV_1&#45;&gt;159 -->
<g id="edge2" class="edge">
<title>RCV_1&#45;&gt;159</title>
<path fill="none" stroke="red" stroke-width="0.28" d="M306.14,-197.81C290.05,-189.26 264.17,-175.17 242.5,-161.87 241.03,-160.96 239.53,-160.02 238.02,-159.06"/>
<polygon fill="red" stroke="red" stroke-width="0.28" points="239.75,-156.01 229.47,-153.45 235.91,-161.86 239.75,-156.01"/>
</g>
<!-- RCV_2 -->
<g id="node5" class="node">
<title>RCV_2</title>
<polygon fill="lightgray" stroke="black" points="130.5,-215.87 86.5,-215.87 86.5,-197.87 130.5,-197.87 130.5,-215.87"/>
<text text-anchor="middle" x="108.5" y="-204.67" font-family="Times New Roman,serif" font-size="9.00">RCV_2</text>
</g>
<!-- RCV_2&#45;&gt;MODE -->
<g id="edge1" class="edge">
<title>RCV_2&#45;&gt;MODE</title>
<path fill="none" stroke="red" stroke-width="0.48" d="M111.67,-197.73C115.4,-188.14 121.72,-171.9 126.61,-159.36"/>
<polygon fill="red" stroke="red" stroke-width="0.48" points="129.91,-160.51 130.28,-149.92 123.39,-157.97 129.91,-160.51"/>
</g>
<!-- RCV_2&#45;&gt;2 -->
<g id="edge13" class="edge">
<title>RCV_2&#45;&gt;2</title>
<path fill="none" stroke="red" stroke-width="0.34" d="M105.61,-197.41C100.66,-181.52 92.06,-146.36 102.5,-119.44 103.91,-115.79 135.63,-81.78 155.88,-60.29"/>
<polygon fill="red" stroke="red" stroke-width="0.34" points="158.42,-62.69 162.74,-53.01 153.33,-57.88 158.42,-62.69"/>
</g>
<!-- 346&#45;&gt;3 -->
<g id="edge6" class="edge">
<title>346&#45;&gt;3</title>
<path fill="none" stroke="red" stroke-width="0.24" d="M280.79,-120.96C287.93,-104.87 298.25,-81.62 305.77,-64.64"/>
<polygon fill="red" stroke="red" stroke-width="0.24" points="308.98,-66.04 309.84,-55.48 302.59,-63.2 308.98,-66.04"/>
</g>
<!-- 159&#45;&gt;2 -->
<g id="edge11" class="edge">
<title>159&#45;&gt;2</title>
<path fill="none" stroke="red" stroke-width="0.14" d="M204.6,-120.5C198.04,-104.6 188.69,-81.96 181.78,-65.2"/>
<polygon fill="red" stroke="red" stroke-width="0.14" points="184.88,-63.55 177.83,-55.64 178.41,-66.22 184.88,-63.55"/>
</g>
</g>
</svg>
